<svg width="24" height="24" viewBox="0 0 24 24" fill="none" xmlns="http://www.w3.org/2000/svg">
<mask id="mask0_154_11771" style="mask-type:alpha" maskUnits="userSpaceOnUse" x="0" y="0" width="24" height="24">
<rect width="24" height="24" fill="#D9D9D9"/>
</mask>
<g mask="url(#mask0_154_11771)">
<path fill-rule="evenodd" clip-rule="evenodd" d="M5 3C3.89543 3 3 3.89543 3 5V19C3 20.1046 3.89543 21 5 21H10H12H20C21.1046 21 22 20.1046 22 19V13C22 11.8954 21.1046 11 20 11H14V5C14 3.89543 13.1046 3 12 3H5ZM12 5H5V19H8V12C8 11.9655 8.00175 11.9314 8.00516 11.8978C8.05637 11.3935 8.48223 11 9 11H12V5ZM13 13H12H10L10 19H12H20V13H13Z" fill="white"/>
</g>
</svg>
