<svg width="32" height="32" viewBox="0 0 32 32" fill="none" xmlns="http://www.w3.org/2000/svg">
<g id="Group 112234" filter="url(#filter0_d_154_12097)">
<g id="Mask group">
<mask id="mask0_154_12097" style="mask-type:alpha" maskUnits="userSpaceOnUse" x="4" y="0" width="24" height="24">
<rect id="Rectangle 39608" x="4" width="24" height="24" fill="#D9D9D9"/>
</mask>
<g mask="url(#mask0_154_12097)">
<path id="Union" fill-rule="evenodd" clip-rule="evenodd" d="M21.6569 6.34313C21.2663 5.95261 20.6332 5.95261 20.2426 6.34313L16 10.5858L11.7574 6.34313C11.3668 5.95261 10.7337 5.95261 10.3431 6.34313C9.95262 6.73366 9.95262 7.36682 10.3431 7.75735L14.5858 12L10.3431 16.2426C9.95262 16.6332 9.95262 17.2663 10.3431 17.6568C10.7337 18.0474 11.3668 18.0474 11.7574 17.6568L16 13.4142L20.2426 17.6568C20.6332 18.0474 21.2663 18.0474 21.6569 17.6568C22.0474 17.2663 22.0474 16.6332 21.6569 16.2426L17.4142 12L21.6569 7.75735C22.0474 7.36682 22.0474 6.73366 21.6569 6.34313Z" fill="white"/>
</g>
</g>
</g>
<defs>
<filter id="filter0_d_154_12097" x="0.050293" y="0.050293" width="31.8994" height="31.8994" filterUnits="userSpaceOnUse" color-interpolation-filters="sRGB">
<feFlood flood-opacity="0" result="BackgroundImageFix"/>
<feColorMatrix in="SourceAlpha" type="matrix" values="0 0 0 0 0 0 0 0 0 0 0 0 0 0 0 0 0 0 127 0" result="hardAlpha"/>
<feOffset dy="4"/>
<feGaussianBlur stdDeviation="5"/>
<feComposite in2="hardAlpha" operator="out"/>
<feColorMatrix type="matrix" values="0 0 0 0 0 0 0 0 0 0 0 0 0 0 0 0 0 0 0.15 0"/>
<feBlend mode="normal" in2="BackgroundImageFix" result="effect1_dropShadow_154_12097"/>
<feBlend mode="normal" in="SourceGraphic" in2="effect1_dropShadow_154_12097" result="shape"/>
</filter>
</defs>
</svg>
