<svg width="16" height="21" viewBox="0 0 16 21" fill="none" xmlns="http://www.w3.org/2000/svg">
<path d="M7.96534 0.953125C5.18584 0.953125 2.93264 3.19212 2.93264 5.95312V9.95311C2.93264 12.7141 5.18584 14.9531 7.96534 14.9531C10.7448 14.9531 12.998 12.7141 12.998 9.95311V5.95312C12.998 3.19212 10.7448 0.953125 7.96534 0.953125ZM7.97844 2.95312C9.64614 2.95312 10.998 4.29612 10.998 5.95312V9.95311C10.998 11.6101 9.64614 12.9531 7.97844 12.9531C6.31074 12.9531 4.95874 11.6101 4.95874 9.95311V5.95312C4.95874 4.29612 6.31074 2.95312 7.97844 2.95312ZM1.29654 12.9361C1.04814 12.8681 0.748838 12.8791 0.507038 13.0151C0.0235383 13.2881 -0.144661 13.9101 0.129639 14.3911C1.55934 16.8941 4.01544 18.5691 7.00314 18.8981L6.99804 19.9531C6.99804 20.5051 7.44214 20.9531 7.99804 20.9531C8.55394 20.9531 8.99804 20.5051 8.99804 19.9531L8.99384 18.8931C11.8491 18.5721 14.4171 16.9211 15.8568 14.4531C16.1356 13.9751 15.9918 13.3861 15.5108 13.1091C15.0299 12.8321 14.4056 12.9751 14.1268 13.4531C12.8744 15.6001 10.5409 16.9531 7.99804 16.9531C5.43194 16.9531 3.12444 15.5921 1.88074 13.4141C1.74364 13.1741 1.54484 13.0051 1.29654 12.9361Z" fill="white"/>
</svg>
