<svg width="24" height="24" viewBox="0 0 24 24" fill="none" xmlns="http://www.w3.org/2000/svg">
<mask id="mask0_154_11763" style="mask-type:alpha" maskUnits="userSpaceOnUse" x="0" y="0" width="24" height="24">
<rect width="24" height="24" fill="#D9D9D9"/>
</mask>
<g mask="url(#mask0_154_11763)">
<path fill-rule="evenodd" clip-rule="evenodd" d="M15.7882 17.5775C18.7729 17.5775 21.1924 15.158 21.1924 12.1734C21.1924 9.18875 18.7729 6.76923 15.7882 6.76923C14.9471 6.76923 14.1509 6.96139 13.4411 7.30419C14.6239 8.58322 15.3467 10.2939 15.3467 12.1734C15.3467 14.0529 14.6239 15.7635 13.4411 17.0426C14.1509 17.3854 14.9471 17.5775 15.7882 17.5775ZM15.7882 5C14.3895 5 13.0842 5.40036 11.9808 6.09273C10.8774 5.40038 9.57212 5.00003 8.17337 5.00003C4.21163 5.00003 1 8.21166 1 12.1734C1 16.1351 4.21163 19.3468 8.17337 19.3468C9.57214 19.3468 10.8774 18.9464 11.9808 18.254C13.0842 18.9464 14.3895 19.3467 15.7882 19.3467C19.75 19.3467 22.9616 16.1351 22.9616 12.1734C22.9616 8.21163 19.75 5 15.7882 5ZM8.17337 17.5775C9.01448 17.5775 9.8107 17.3854 10.5205 17.0426C9.3377 15.7635 8.61487 14.0529 8.61487 12.1734C8.61487 10.2939 9.33769 8.58322 10.5205 7.30421C9.81067 6.96141 9.01446 6.76926 8.17337 6.76926C5.18875 6.76926 2.76923 9.18878 2.76923 12.1734C2.76923 15.158 5.18875 17.5775 8.17337 17.5775ZM10.9715 14.6262C11.2336 15.1399 11.5755 15.6061 11.9808 16.0085C12.9669 15.0295 13.5775 13.6727 13.5775 12.1734C13.5775 12.1229 13.5768 12.0725 13.5754 12.0223L10.9715 14.6262ZM10.4082 12.6874L13.1144 9.98127C12.8402 9.36403 12.4536 8.80772 11.9808 8.33826C10.9947 9.31729 10.3841 10.674 10.3841 12.1734C10.3841 12.3468 10.3923 12.5182 10.4082 12.6874Z" fill="white"/>
</g>
</svg>
