<svg width="39" height="39" viewBox="0 0 39 39" fill="none" xmlns="http://www.w3.org/2000/svg">
<rect width="39" height="39" rx="7.47945" fill="url(#paint0_linear_154_12058)"/>
<path d="M6.06964 14.3973H7.84868L9.00266 23.1002H9.03471L10.1887 14.3973H11.8075L10.1085 25.6165H7.76855L6.06964 14.3973ZM15.1072 25.7767C14.2631 25.7767 13.6167 25.5363 13.1679 25.0555C12.7298 24.5747 12.5108 23.8962 12.5108 23.02V16.9937C12.5108 16.1176 12.7298 15.4391 13.1679 14.9582C13.6167 14.4774 14.2631 14.237 15.1072 14.237C15.9513 14.237 16.5924 14.4774 17.0305 14.9582C17.4793 15.4391 17.7037 16.1176 17.7037 16.9937V18.1797H16.0368V16.8815C16.0368 16.187 15.743 15.8397 15.1553 15.8397C14.5676 15.8397 14.2738 16.187 14.2738 16.8815V23.1482C14.2738 23.8321 14.5676 24.174 15.1553 24.174C15.743 24.174 16.0368 23.8321 16.0368 23.1482V21.4333H17.7037V23.02C17.7037 23.8962 17.4793 24.5747 17.0305 25.0555C16.5924 25.5363 15.9513 25.7767 15.1072 25.7767ZM18.7585 14.3973H20.5215V24.0137H23.4224V25.6165H18.7585V14.3973ZM24.2679 14.3973H26.0309V25.6165H24.2679V14.3973ZM27.3513 14.3973H29.9477C30.8239 14.3973 31.481 14.6323 31.9191 15.1025C32.3572 15.5726 32.5762 16.2618 32.5762 17.17V18.2759C32.5762 19.1841 32.3572 19.8733 31.9191 20.3434C31.481 20.8136 30.8239 21.0486 29.9477 21.0486H29.1143V25.6165H27.3513V14.3973ZM29.9477 19.4459C30.2362 19.4459 30.4499 19.3658 30.5888 19.2055C30.7384 19.0452 30.8132 18.7728 30.8132 18.3881V17.0578C30.8132 16.6732 30.7384 16.4007 30.5888 16.2404C30.4499 16.0802 30.2362 16 29.9477 16H29.1143V19.4459H29.9477Z" fill="white"/>
<defs>
<linearGradient id="paint0_linear_154_12058" x1="0" y1="0" x2="38.2241" y2="39.0067" gradientUnits="userSpaceOnUse">
<stop stop-color="#FFB951"/>
<stop offset="1" stop-color="#CE50E0"/>
</linearGradient>
</defs>
</svg>
