<svg width="24" height="24" viewBox="0 0 24 24" fill="none" xmlns="http://www.w3.org/2000/svg">
<mask id="mask0_154_11752" style="mask-type:alpha" maskUnits="userSpaceOnUse" x="0" y="0" width="24" height="24">
<rect width="24" height="24" fill="#D9D9D9"/>
</mask>
<g mask="url(#mask0_154_11752)">
<path fill-rule="evenodd" clip-rule="evenodd" d="M6 7C5.44772 7 5 6.55228 5 6V4C5 3.44772 5.44772 3 6 3H18C18.5523 3 19 3.44772 19 4V6C19 6.55228 18.5523 7 18 7C17.4477 7 17 6.55228 17 6V5L13.0377 5L13.0377 19H15C15.5523 19 16 19.4477 16 20C16 20.5523 15.5523 21 15 21H9C8.44772 21 8 20.5523 8 20C8 19.4477 8.44772 19 9 19H10.9622L10.9622 5L7 5V6C7 6.55228 6.55228 7 6 7Z" fill="white"/>
</g>
</svg>
