<svg width="24" height="24" viewBox="0 0 24 24" fill="none" xmlns="http://www.w3.org/2000/svg">
<mask id="mask0_154_11760" style="mask-type:alpha" maskUnits="userSpaceOnUse" x="0" y="0" width="24" height="24">
<rect width="24" height="24" fill="#D9D9D9"/>
</mask>
<g mask="url(#mask0_154_11760)">
<path fill-rule="evenodd" clip-rule="evenodd" d="M9.85586 9.74798C9.83428 9.79576 9.796 9.83403 9.74822 9.85561L5.43487 11.8037C5.2659 11.88 5.2659 12.12 5.43487 12.1963L9.74822 14.1444C9.796 14.166 9.83428 14.2043 9.85586 14.2521L11.804 18.5654C11.8803 18.7344 12.1202 18.7344 12.1965 18.5654L14.1447 14.2521C14.1662 14.2043 14.2045 14.166 14.2523 14.1444L18.5656 12.1963C18.7346 12.12 18.7346 11.88 18.5656 11.8037L14.2523 9.85561C14.2045 9.83403 14.1662 9.79576 14.1447 9.74797L12.1965 5.43463C12.1202 5.26566 11.8803 5.26566 11.804 5.43463L9.85586 9.74798ZM15.8062 8.19409L14.1595 4.54808C13.32 2.68938 10.6805 2.68937 9.84104 4.54808L8.19433 8.19409L4.54832 9.84079C2.68963 10.6803 2.68962 13.3198 4.54832 14.1592L8.19433 15.8059L9.84104 19.4519C10.6805 21.3106 13.32 21.3107 14.1595 19.4519L15.8062 15.8059L19.4522 14.1592C21.3109 13.3198 21.3109 10.6803 19.4522 9.84079L15.8062 8.19409Z" fill="white"/>
</g>
</svg>
