<svg width="19" height="19" viewBox="0 0 19 19" fill="none" xmlns="http://www.w3.org/2000/svg">
<path d="M4.2108 11.4818L3.54944 13.9507L1.13217 14.0019C0.40976 12.6619 0 11.1289 0 9.49983C0 7.92451 0.38312 6.43893 1.06222 5.13086H1.06274L3.21479 5.52541L4.15752 7.66454C3.96021 8.23978 3.85267 8.85729 3.85267 9.49984C3.85274 10.1972 3.97906 10.8653 4.21081 11.4818L4.2108 11.4818Z" fill="#FBBB00"/>
<path d="M18.8342 7.72463C18.9433 8.29931 19.0001 8.89281 19.0001 9.49936C19.0001 10.1795 18.9286 10.8429 18.7925 11.4829C18.33 13.6606 17.1216 15.5622 15.4476 16.9078L15.4471 16.9073L12.7365 16.769L12.3528 14.3741C13.4636 13.7227 14.3316 12.7033 14.7889 11.4829H9.70898V7.72461H14.863H18.8342L18.8342 7.72463Z" fill="#518EF8"/>
<path d="M15.4466 16.9084L15.4471 16.9089C13.8191 18.2175 11.751 19.0005 9.49968 19.0005C5.88184 19.0005 2.73641 16.9784 1.13184 14.0025L4.21048 11.4824C5.01275 13.6236 7.07822 15.1478 9.49969 15.1478C10.5405 15.1478 11.5156 14.8664 12.3523 14.3752L15.4466 16.9084Z" fill="#28B446"/>
<path d="M15.5636 2.18709L12.4861 4.70667C11.6201 4.16539 10.5965 3.85271 9.49981 3.85271C7.02354 3.85271 4.91943 5.44682 4.15734 7.66474L1.06253 5.13105H1.06201C2.6431 2.08269 5.8282 0 9.49981 0C11.8049 0 13.9184 0.82108 15.5636 2.18708V2.18709Z" fill="#F14336"/>
</svg>
