<svg width="14" height="21" viewBox="0 0 14 21" fill="none" xmlns="http://www.w3.org/2000/svg">
<path d="M12.8411 0.966755L6.84106 1.96675C6.35906 2.04675 5.99707 2.47775 5.99707 2.96675L5.98607 13.4948C5.39207 13.1448 4.73707 12.9667 3.99707 12.9667C1.78807 12.9667 -0.00292969 14.7577 -0.00292969 16.9667C-0.00292969 19.1757 1.78807 20.9667 3.99707 20.9667C6.20607 20.9667 7.99707 19.1757 7.99707 16.9667L8.01007 7.80476L13.1471 6.93477C13.2611 6.91677 13.5211 6.83375 13.7471 6.59175C13.9941 6.33575 13.9971 6.07275 13.9971 5.96675V5.81074V1.96675C13.9971 1.34875 13.4501 0.864755 12.8411 0.966755ZM11.9821 3.13674L11.9871 5.10976L7.99707 5.77876L8.00107 3.79573L11.9821 3.13674ZM3.99707 14.9667C5.10207 14.9667 5.99707 15.8617 5.99707 16.9667C5.99707 18.0717 5.10207 18.9667 3.99707 18.9667C2.89207 18.9667 1.99707 18.0717 1.99707 16.9667C1.99707 15.8617 2.89207 14.9667 3.99707 14.9667Z" fill="white"/>
</svg>
