<svg xmlns="http://www.w3.org/2000/svg" xmlns:xlink="http://www.w3.org/1999/xlink" xmlns:serif="http://www.serif.com/" viewBox="0 0 512 640" version="1.1" xml:space="preserve" style="" x="0px" y="0px" fill-rule="evenodd" clip-rule="evenodd" stroke-linejoin="round" stroke-miterlimit="2"><g><path d="M184.871,61.122L184.871,450.878L80.664,450.878C75.141,450.878 70.664,455.355 70.664,460.878L70.664,496C70.664,501.523 75.141,506 80.664,506L212.432,506C227.653,506 239.993,493.661 239.993,478.439C239.993,478.439 239.993,33.561 239.993,33.561C239.993,18.339 227.653,6 212.432,6C212.432,6 80.664,6 80.664,6C75.141,6 70.664,10.477 70.664,16L70.664,51.122C70.664,56.645 75.141,61.122 80.664,61.122L184.871,61.122ZM327.129,450.878L327.129,61.122L431.336,61.122C436.859,61.122 441.336,56.645 441.336,51.122L441.336,16C441.336,10.477 436.859,6 431.336,6L299.568,6C284.347,6 272.007,18.339 272.007,33.561C272.007,33.561 272.007,478.439 272.007,478.439C272.007,493.661 284.347,506 299.568,506L431.336,506C436.859,506 441.336,501.523 441.336,496L441.336,460.878C441.336,455.355 436.859,450.878 431.336,450.878L327.129,450.878ZM90.664,486L90.664,470.878L204.871,470.878C204.871,470.878 204.871,128.976 204.871,62.595C204.871,55.957 204.871,41.122 204.871,41.122L90.664,41.122C90.664,41.122 90.664,26 90.664,26C90.664,26 212.432,26 212.432,26C216.608,26 219.993,29.385 219.993,33.561L219.993,478.439C219.993,482.615 216.608,486 212.432,486C212.432,486 90.664,486 90.664,486ZM307.129,62.595L307.129,470.878L421.336,470.878L421.336,486L299.568,486C295.392,486 292.007,482.615 292.007,478.439L292.007,33.561C292.007,29.385 295.392,26 299.568,26L421.336,26C421.336,26 421.336,41.122 421.336,41.122L307.129,41.122C307.129,41.122 307.129,55.957 307.129,62.595Z"/></g><text x="0" y="527" fill="#000000" font-size="5px" font-weight="bold" font-family="'Helvetica Neue', Helvetica, Arial-Unicode, Arial, Sans-serif">Created by Sutiyah</text><text x="0" y="532" fill="#000000" font-size="5px" font-weight="bold" font-family="'Helvetica Neue', Helvetica, Arial-Unicode, Arial, Sans-serif">from the Noun Project</text></svg>